<svg xmlns="http://www.w3.org/2000/svg" xmlns:xlink="http://www.w3.org/1999/xlink" viewBox="0 0 281.45 403.04"><defs><style>.cls-1{isolation:isolate;}.cls-2{fill:url(#Gradiente_sem_nome_18);}.cls-3{fill:#3f202a;opacity:0.15;mix-blend-mode:multiply;}.cls-4{fill:url(#Gradiente_sem_nome_24);}.cls-5{fill:#fff;}.cls-6{fill:url(#Gradiente_sem_nome_24-2);}.cls-7{fill:url(#Gradiente_sem_nome_24-3);}.cls-8{fill:url(#Gradiente_sem_nome_24-4);}.cls-9{fill:url(#Gradiente_sem_nome_24-5);}.cls-10{fill:url(#Gradiente_sem_nome_24-6);}.cls-11{fill:url(#Gradiente_sem_nome_24-7);}.cls-12{fill:url(#Gradiente_sem_nome_24-8);}.cls-13{fill:url(#Gradiente_sem_nome_24-9);}.cls-14{fill:url(#Gradiente_sem_nome_24-10);}.cls-15{fill:url(#Gradiente_sem_nome_24-11);}.cls-16{fill:url(#Gradiente_sem_nome_24-12);}.cls-17{fill:url(#Gradiente_sem_nome_24-13);}.cls-18{fill:url(#Gradiente_sem_nome_24-14);}.cls-19{fill:url(#Gradiente_sem_nome_24-15);}.cls-20{fill:url(#Gradiente_sem_nome_24-16);}.cls-21{fill:url(#Gradiente_sem_nome_24-17);}.cls-22{font-size:20.07px;font-family:OpenSans, Open Sans;}</style><linearGradient id="Gradiente_sem_nome_18" x1="250" y1="364.92" x2="250" y2="56.45" gradientUnits="userSpaceOnUse"><stop offset="0" stop-color="#94004a"/><stop offset="1" stop-color="#d4005e"/></linearGradient><linearGradient id="Gradiente_sem_nome_24" x1="250" y1="131.49" x2="250" y2="291.39" gradientUnits="userSpaceOnUse"><stop offset="0" stop-color="#ffe22a"/><stop offset="1" stop-color="#ff9b2a"/></linearGradient><linearGradient id="Gradiente_sem_nome_24-2" x1="113.52" y1="389.57" x2="113.52" y2="424.87" xlink:href="#Gradiente_sem_nome_24"/><linearGradient id="Gradiente_sem_nome_24-3" x1="131.22" y1="389.57" x2="131.22" y2="424.87" xlink:href="#Gradiente_sem_nome_24"/><linearGradient id="Gradiente_sem_nome_24-4" x1="150.19" y1="389.57" x2="150.19" y2="424.87" xlink:href="#Gradiente_sem_nome_24"/><linearGradient id="Gradiente_sem_nome_24-5" x1="169.92" y1="389.57" x2="169.92" y2="424.87" xlink:href="#Gradiente_sem_nome_24"/><linearGradient id="Gradiente_sem_nome_24-6" x1="189.65" y1="389.57" x2="189.65" y2="424.87" xlink:href="#Gradiente_sem_nome_24"/><linearGradient id="Gradiente_sem_nome_24-7" x1="209.39" y1="389.57" x2="209.39" y2="424.87" xlink:href="#Gradiente_sem_nome_24"/><linearGradient id="Gradiente_sem_nome_24-8" x1="228.49" y1="389.57" x2="228.49" y2="424.87" xlink:href="#Gradiente_sem_nome_24"/><linearGradient id="Gradiente_sem_nome_24-9" x1="258.38" y1="389.57" x2="258.38" y2="424.87" xlink:href="#Gradiente_sem_nome_24"/><linearGradient id="Gradiente_sem_nome_24-10" x1="277.38" y1="389.57" x2="277.38" y2="424.87" xlink:href="#Gradiente_sem_nome_24"/><linearGradient id="Gradiente_sem_nome_24-11" x1="292.83" y1="389.57" x2="292.83" y2="424.87" xlink:href="#Gradiente_sem_nome_24"/><linearGradient id="Gradiente_sem_nome_24-12" x1="308.01" y1="389.57" x2="308.01" y2="424.87" xlink:href="#Gradiente_sem_nome_24"/><linearGradient id="Gradiente_sem_nome_24-13" x1="324.65" y1="389.57" x2="324.65" y2="424.87" xlink:href="#Gradiente_sem_nome_24"/><linearGradient id="Gradiente_sem_nome_24-14" x1="338.64" y1="389.57" x2="338.64" y2="424.87" xlink:href="#Gradiente_sem_nome_24"/><linearGradient id="Gradiente_sem_nome_24-15" x1="350.26" y1="389.57" x2="350.26" y2="424.87" xlink:href="#Gradiente_sem_nome_24"/><linearGradient id="Gradiente_sem_nome_24-16" x1="364.71" y1="389.57" x2="364.71" y2="424.87" xlink:href="#Gradiente_sem_nome_24"/><linearGradient id="Gradiente_sem_nome_24-17" x1="382.79" y1="389.57" x2="382.79" y2="424.87" xlink:href="#Gradiente_sem_nome_24"/></defs><title>Luggage Detective</title><g class="cls-1"><g id="Camada_1" data-name="Camada 1"><path class="cls-2" d="M361.05,76.45H293.12c0-.32,0-.64,0-1A32.52,32.52,0,0,0,260.68,43H239.32a32.52,32.52,0,0,0-32.47,32.47c0,.33,0,.65,0,1H138.95a11.21,11.21,0,0,0-11.2,11.2V356.79A11.2,11.2,0,0,0,138.95,368h14.11a14.24,14.24,0,0,0,28.1,0H316.95a14.23,14.23,0,0,0,26.65,4.25A13.93,13.93,0,0,0,345,368h16a11.2,11.2,0,0,0,11.2-11.19V87.65A11.21,11.21,0,0,0,361.05,76.45ZM239.32,54.13h21.35A21.37,21.37,0,0,1,282,75.47c0,.33,0,.65-.06,1H218c0-.32-.06-.64-.06-1A21.37,21.37,0,0,1,239.32,54.13Z" transform="translate(-107.93 -43)"/><path class="cls-3" d="M308.88,197.26a58.81,58.81,0,1,0-117.62,0S185.49,238.94,250,298.35h0c57.83-53.26,59.18-92.26,58.84-99.76C308.85,198.14,308.88,197.7,308.88,197.26Z" transform="translate(-107.93 -43)"/><path class="cls-4" d="M308.88,190.3a58.81,58.81,0,0,0-117.62,0S185.49,232,250,291.39h0c57.83-53.26,59.18-92.26,58.84-99.76C308.85,191.18,308.88,190.74,308.88,190.3Z" transform="translate(-107.93 -43)"/><path class="cls-5" d="M260.25,143.2l-1.06-.21-1.32-.24a49.74,49.74,0,0,0-17.49.3,49.26,49.26,0,0,0-39.57,48.26c0,.3,0,.6,0,.9v.2a49.2,49.2,0,0,0,57,47.47l1.26-.21,1.09-.23a49.19,49.19,0,0,0,39-47v-.22c0-.3,0-.58,0-.88A49.17,49.17,0,0,0,260.25,143.2Zm-18.34,7.59.79-.14a47,47,0,0,0-14.48,13.29h-9.14A41.17,41.17,0,0,1,241.91,150.78ZM216,167.87h9.7a46.94,46.94,0,0,0-5.84,17.71H209.08A41.26,41.26,0,0,1,216,167.87Zm-7.32,23.45c0-.6,0-1.2,0-1.8h10.81q0,.9,0,1.8a47.33,47.33,0,0,0,3,16.65H212.2A41.18,41.18,0,0,1,208.68,191.32Zm33.23,40.53a41.26,41.26,0,0,1-27.73-19.94h10A47,47,0,0,0,242.69,232C242.43,231.94,242.17,231.9,241.91,231.84Zm5.14-2a43.05,43.05,0,0,1-18.44-18H247ZM247,208H226.74a43.36,43.36,0,0,1-3.31-16.65c0-.6,0-1.2,0-1.8H247Zm0-22.38H223.82a43.14,43.14,0,0,1,6.48-17.71H247Zm0-21.64H233.17A43.28,43.28,0,0,1,247,152.74Zm43.87,21.64H279.16a46.94,46.94,0,0,0-5.84-17.71H284A41.24,41.24,0,0,1,290.92,185.58ZM257.62,150.7l.53.1A41.14,41.14,0,0,1,281,163.94H270.8a47.09,47.09,0,0,0-14.89-13.52C256.48,150.51,257.05,150.6,257.62,150.7ZM251,152.27a43.31,43.31,0,0,1,14.87,11.67H251Zm0,15.6H268.7a43.06,43.06,0,0,1,6.49,17.71H251Zm0,21.64h24.56c0,.6,0,1.2,0,1.8A43.36,43.36,0,0,1,272.27,208H251Zm0,22.38h19.42A43.18,43.18,0,0,1,251,230.37Zm7.16,19.93-.52.1c-.56.11-1.13.2-1.69.28a47.07,47.07,0,0,0,18.89-20.31h11A41.18,41.18,0,0,1,258.15,231.83ZM287.82,208H276.51a47.33,47.33,0,0,0,3-16.65q0-.9,0-1.8h11.8c0,.6,0,1.2,0,1.8A41.3,41.3,0,0,1,287.82,208Z" transform="translate(-107.93 -43)"/><path class="cls-6" d="M112.39,411.94h6.73v3.91H107.93V396.31h4.45Z" transform="translate(-107.93 -43)"/><path class="cls-7" d="M128.83,409.48c0,2.39.64,3.32,2.39,3.32s2.39-.92,2.39-3.32V403.7h4.19v6.8c0,4.07-2,5.71-6.58,5.71s-6.58-1.63-6.58-5.71v-6.8h4.19Z" transform="translate(-107.93 -43)"/><path class="cls-8" d="M146.85,417.15a3.66,3.66,0,0,0,3.29,1.56,2.8,2.8,0,0,0,3-2.84V415c-.9,1-2.32,1.23-4,1.23a6.1,6.1,0,0,1-6-6.42c0-3.55,2.49-6.44,6-6.44a5.55,5.55,0,0,1,3.91,1.44h.07V403.7h4.19v12.48c0,4.07-3,6.18-7.15,6.18-2.53,0-5.45-.57-6.73-3.53Zm3.53-4.52a2.73,2.73,0,0,0,2.82-2.84,2.83,2.83,0,1,0-5.66,0A2.71,2.71,0,0,0,150.38,412.63Z" transform="translate(-107.93 -43)"/><path class="cls-9" d="M166.58,417.15a3.66,3.66,0,0,0,3.29,1.56,2.8,2.8,0,0,0,3-2.84V415c-.9,1-2.32,1.23-4,1.23a6.1,6.1,0,0,1-6-6.42c0-3.55,2.49-6.44,6-6.44a5.55,5.55,0,0,1,3.91,1.44h.07V403.7H177v12.48c0,4.07-3,6.18-7.15,6.18-2.53,0-5.45-.57-6.73-3.53Zm3.53-4.52a2.73,2.73,0,0,0,2.82-2.84,2.83,2.83,0,1,0-5.66,0A2.71,2.71,0,0,0,170.11,412.63Z" transform="translate(-107.93 -43)"/><path class="cls-10" d="M188.59,403.35a5.53,5.53,0,0,1,4,1.52V403.7h4.19v12.15h-4.14v-1.37h0a5.38,5.38,0,0,1-4,1.73,6.1,6.1,0,0,1-6-6.42C182.55,406.24,185,403.35,188.59,403.35Zm1.25,9.28a2.73,2.73,0,0,0,2.82-2.84,2.83,2.83,0,1,0-5.66,0A2.71,2.71,0,0,0,189.84,412.63Z" transform="translate(-107.93 -43)"/><path class="cls-11" d="M206,417.15a3.66,3.66,0,0,0,3.29,1.56,2.8,2.8,0,0,0,3-2.84V415c-.9,1-2.32,1.23-4,1.23a6.1,6.1,0,0,1-6-6.42c0-3.55,2.49-6.44,6-6.44a5.55,5.55,0,0,1,3.91,1.44h.07V403.7h4.19v12.48c0,4.07-3,6.18-7.15,6.18-2.53,0-5.45-.57-6.73-3.53Zm3.53-4.52a2.73,2.73,0,0,0,2.82-2.84,2.83,2.83,0,1,0-5.66,0A2.71,2.71,0,0,0,209.58,412.63Z" transform="translate(-107.93 -43)"/><path class="cls-12" d="M226.25,410.36a2.48,2.48,0,0,0,2.63,2.51,3.33,3.33,0,0,0,3-1.35l3,1.52c-1.37,2.3-3.6,3.17-6.3,3.17a6.43,6.43,0,1,1,0-12.86c3.69,0,6.51,2.18,6.51,6.44a4.33,4.33,0,0,1,0,.57ZM231,408a2.16,2.16,0,0,0-2.3-2,2.09,2.09,0,0,0-2.32,2Z" transform="translate(-107.93 -43)"/><path class="cls-13" d="M256.29,396.31a9.77,9.77,0,1,1,0,19.54h-5.66V396.31Zm-.52,15.56a5.79,5.79,0,0,0,0-11.58h-.69v11.58Z" transform="translate(-107.93 -43)"/><path class="cls-14" d="M275.14,410.36a2.48,2.48,0,0,0,2.63,2.51,3.33,3.33,0,0,0,3-1.35l3,1.52c-1.37,2.3-3.6,3.17-6.3,3.17a6.43,6.43,0,1,1,0-12.86c3.69,0,6.51,2.18,6.51,6.44a4.24,4.24,0,0,1,0,.57Zm4.74-2.32a2.16,2.16,0,0,0-2.3-2,2.09,2.09,0,0,0-2.32,2Z" transform="translate(-107.93 -43)"/><path class="cls-15" d="M290.09,399.18h4.19v4.52h2.56v3.2h-2.56v3.86c0,1.14.28,1.68.95,1.68a2,2,0,0,0,1-.38l1,3.39a6.94,6.94,0,0,1-3.08.76c-3.34,0-4.14-2.49-4.14-4.64V406.9h-1.75v-3.2h1.75Z" transform="translate(-107.93 -43)"/><path class="cls-16" d="M305.77,410.36a2.48,2.48,0,0,0,2.63,2.51,3.33,3.33,0,0,0,3-1.35l3,1.52c-1.37,2.3-3.6,3.17-6.3,3.17a6.43,6.43,0,1,1,0-12.86c3.69,0,6.51,2.18,6.51,6.44a4.42,4.42,0,0,1,0,.57Zm4.74-2.32a2.16,2.16,0,0,0-2.3-2,2.09,2.09,0,0,0-2.32,2Z" transform="translate(-107.93 -43)"/><path class="cls-17" d="M323.7,409.76a2.94,2.94,0,0,0,2.89,3,3.7,3.7,0,0,0,2-.57l1.42,2.91a6.87,6.87,0,0,1-4.07,1.09A6.44,6.44,0,1,1,330,404.48l-1.42,2.87a3.7,3.7,0,0,0-2-.57A2.94,2.94,0,0,0,323.7,409.76Z" transform="translate(-107.93 -43)"/><path class="cls-18" d="M335.9,399.18h4.19v4.52h2.56v3.2h-2.56v3.86c0,1.14.28,1.68.95,1.68a2,2,0,0,0,1-.38l1,3.39a6.94,6.94,0,0,1-3.08.76c-3.34,0-4.14-2.49-4.14-4.64V406.9h-1.75v-3.2h1.75Z" transform="translate(-107.93 -43)"/><path class="cls-19" d="M352.74,398.68a2.49,2.49,0,1,1-2.49-2.49A2.49,2.49,0,0,1,352.74,398.68Zm-4.64,17.17h4.19V403.7H348.1Z" transform="translate(-107.93 -43)"/><path class="cls-20" d="M364.71,410.31l3-6.61h5l-6.51,12.15h-2.84l-6.51-12.15h5Z" transform="translate(-107.93 -43)"/><path class="cls-21" d="M380.55,410.36a2.48,2.48,0,0,0,2.63,2.51,3.33,3.33,0,0,0,3-1.35l3,1.52c-1.37,2.3-3.6,3.17-6.3,3.17a6.43,6.43,0,1,1,0-12.86c3.69,0,6.51,2.18,6.51,6.44a4.42,4.42,0,0,1,0,.57Zm4.74-2.32a2.16,2.16,0,0,0-2.3-2,2.09,2.09,0,0,0-2.32,2Z" transform="translate(-107.93 -43)"/><text class="cls-22" transform="translate(19.81 397.6)">find your things anywhere</text></g></g></svg>